<svg width="243" height="63" viewBox="0 0 243 63" fill="none" xmlns="http://www.w3.org/2000/svg">
<g clip-path="url(#clip0_594_1577)">
<path fill-rule="evenodd" clip-rule="evenodd" d="M32.4462 18.5701C23.043 2.29946 37.7774 0.657921 44.1329 5.17248C46.7326 7.02985 51.932 13.3651 51.932 23.8469C55.6755 17.7637 60.8229 21.5072 59.887 26.6545C55.0205 55.1051 27.5155 60.6958 14.3713 59.9348C38.7998 58.2687 41.8493 34.8408 32.4462 18.5701ZM11.8414 23.381C7.18979 24.5268 3.18178 28.872 13.3519 34.3365C25.5486 40.8899 28.7238 51.9083 18.832 56.7043C17.9133 57.0971 16.9326 57.4719 15.8865 57.8268C16.9731 57.5066 17.954 57.13 18.832 56.7043C37.9145 48.5461 30.1815 32.666 23.6412 27.3309C18.7798 23.0566 13.7491 22.9166 11.8414 23.381Z" fill="url(#paint0_radial_594_1577)"/>
<path fill-rule="evenodd" clip-rule="evenodd" d="M32.4462 18.5701C23.043 2.29946 37.7774 0.657921 44.1329 5.17248C46.7326 7.02985 51.932 13.3651 51.932 23.8469C55.6755 17.7637 60.8229 21.5072 59.887 26.6545C55.0205 55.1051 27.5155 60.6958 14.3713 59.9348C38.7998 58.2687 41.8493 34.8408 32.4462 18.5701ZM11.8414 23.381C7.18979 24.5268 3.18178 28.872 13.3519 34.3365C25.5486 40.8899 28.7238 51.9083 18.832 56.7043C17.9133 57.0971 16.9326 57.4719 15.8865 57.8268C16.9731 57.5066 17.954 57.13 18.832 56.7043C37.9145 48.5461 30.1815 32.666 23.6412 27.3309C18.7798 23.0566 13.7491 22.9166 11.8414 23.381Z" fill="url(#paint1_radial_594_1577)"/>
<path d="M94.2849 16.2273H101.828V36.3988C101.828 38.73 101.273 40.7609 100.164 42.4915C99.0542 44.2119 97.5068 45.5455 95.5218 46.4922C93.5367 47.4287 91.2309 47.897 88.6045 47.897C85.9475 47.897 83.6265 47.4287 81.6414 46.4922C79.6563 45.5455 78.1141 44.2119 77.0147 42.4915C75.9152 40.7609 75.3655 38.73 75.3655 36.3988V16.2273H82.9241V35.7422C82.9241 36.8213 83.1582 37.7833 83.6265 38.6282C84.105 39.4731 84.7718 40.1348 85.6269 40.6133C86.482 41.0917 87.4745 41.331 88.6045 41.331C89.7345 41.331 90.7219 41.0917 91.5669 40.6133C92.422 40.1348 93.0888 39.4731 93.5672 38.6282C94.0457 37.7833 94.2849 36.8213 94.2849 35.7422V16.2273ZM114.033 34.1236V47.5H106.566V24.0455H113.666V28.3516H113.926C114.445 26.9162 115.331 25.7913 116.583 24.9769C117.835 24.1523 119.326 23.7401 121.057 23.7401C122.706 23.7401 124.136 24.1116 125.348 24.8548C126.569 25.5877 127.516 26.6159 128.188 27.9393C128.87 29.2525 129.206 30.7897 129.196 32.5508V47.5H121.729V34.0167C121.739 32.7137 121.408 31.6957 120.736 30.9627C120.074 30.2298 119.153 29.8633 117.972 29.8633C117.188 29.8633 116.496 30.0363 115.896 30.3825C115.305 30.7184 114.847 31.2019 114.521 31.8331C114.206 32.4643 114.043 33.2277 114.033 34.1236ZM138.201 47.5L132.093 24.0455H139.591L142.752 39.071H142.95L146.34 24.0455H153.654L157.136 38.9641H157.334L160.404 24.0455H167.901L161.778 47.5H153.792L150.127 33.8335H149.867L146.203 47.5H138.201ZM170.898 47.5V24.0455H178.365V47.5H170.898ZM174.639 21.3121C173.59 21.3121 172.689 20.966 171.936 20.2738C171.183 19.5714 170.806 18.7264 170.806 17.739C170.806 16.7617 171.183 15.927 171.936 15.2347C172.689 14.5323 173.59 14.1811 174.639 14.1811C175.698 14.1811 176.598 14.5323 177.342 15.2347C178.095 15.927 178.472 16.7617 178.472 17.739C178.472 18.7264 178.095 19.5714 177.342 20.2738C176.598 20.966 175.698 21.3121 174.639 21.3121ZM190.584 34.1236V47.5H183.117V24.0455H190.218V28.3516H190.478C190.997 26.9162 191.882 25.7913 193.135 24.9769C194.387 24.1523 195.878 23.7401 197.609 23.7401C199.258 23.7401 200.688 24.1116 201.899 24.8548C203.121 25.5877 204.068 26.6159 204.74 27.9393C205.422 29.2525 205.758 30.7897 205.747 32.5508V47.5H198.28V34.0167C198.291 32.7137 197.96 31.6957 197.288 30.9627C196.626 30.2298 195.705 29.8633 194.524 29.8633C193.74 29.8633 193.048 30.0363 192.447 30.3825C191.857 30.7184 191.399 31.2019 191.073 31.8331C190.757 32.4643 190.595 33.2277 190.584 34.1236ZM218.937 47.8359C217.206 47.8359 215.633 47.388 214.218 46.4922C212.803 45.5964 211.673 44.2526 210.828 42.4609C209.984 40.6693 209.561 38.445 209.561 35.788C209.561 33.0292 209.999 30.7591 210.874 28.9776C211.75 27.1961 212.895 25.8778 214.31 25.0227C215.735 24.1676 217.267 23.7401 218.906 23.7401C220.138 23.7401 221.192 23.9538 222.067 24.3814C222.943 24.7988 223.665 25.3383 224.235 26C224.806 26.6617 225.238 27.3488 225.533 28.0614H225.686V16.2273H233.153V47.5H225.762V43.6978H225.533C225.218 44.4206 224.77 45.0975 224.19 45.7287C223.609 46.3598 222.882 46.8688 222.006 47.2557C221.141 47.6425 220.118 47.8359 218.937 47.8359ZM221.533 42.0181C222.439 42.0181 223.212 41.7636 223.854 41.2546C224.495 40.7354 224.989 40.0076 225.335 39.071C225.681 38.1345 225.854 37.035 225.854 35.7727C225.854 34.4901 225.681 33.3855 225.335 32.4592C224.999 31.5328 224.505 30.8202 223.854 30.3214C223.212 29.8226 222.439 29.5732 221.533 29.5732C220.606 29.5732 219.822 29.8277 219.181 30.3366C218.54 30.8456 218.051 31.5633 217.715 32.4897C217.389 33.4161 217.227 34.5104 217.227 35.7727C217.227 37.035 217.395 38.1345 217.73 39.071C218.066 40.0076 218.55 40.7354 219.181 41.2546C219.822 41.7636 220.606 42.0181 221.533 42.0181Z" fill="white"/>
</g>
<defs>
<radialGradient id="paint0_radial_594_1577" cx="0" cy="0" r="1" gradientUnits="userSpaceOnUse" gradientTransform="translate(36.9581 13.4195) rotate(108.587) scale(55.7867 51.8706)">
<stop stop-color="#F2AD72"/>
<stop offset="1" stop-color="#B28BEB"/>
</radialGradient>
<radialGradient id="paint1_radial_594_1577" cx="0" cy="0" r="1" gradientUnits="userSpaceOnUse" gradientTransform="translate(36.9581 13.4195) rotate(108.587) scale(55.7867 51.8706)">
<stop stop-color="#F2AD72"/>
<stop offset="1" stop-color="#B28BEB"/>
</radialGradient>
<clipPath id="clip0_594_1577">
<rect width="243" height="63" fill="white"/>
</clipPath>
</defs>
</svg>
