<svg width="243" height="74" viewBox="0 0 243 74" fill="none" xmlns="http://www.w3.org/2000/svg">
<path fill-rule="evenodd" clip-rule="evenodd" d="M32.4462 23.5701C23.043 7.29946 37.7774 5.65792 44.1329 10.1725C46.7326 12.0299 51.932 18.3651 51.932 28.8469C55.6755 22.7637 60.8229 26.5072 59.887 31.6545C55.0205 60.1051 27.5155 65.6958 14.3713 64.9348C38.7998 63.2687 41.8493 39.8408 32.4462 23.5701ZM11.8414 28.381C7.18979 29.5268 3.18178 33.872 13.3519 39.3365C25.5486 45.8899 28.7238 56.9083 18.832 61.7043C17.9133 62.0971 16.9326 62.4719 15.8865 62.8268C16.9731 62.5066 17.954 62.13 18.832 61.7043C37.9145 53.5461 30.1815 37.666 23.6412 32.3309C18.7798 28.0566 13.7491 27.9166 11.8414 28.381Z" fill="url(#paint0_radial_594_1577)"/>
<path fill-rule="evenodd" clip-rule="evenodd" d="M32.4462 23.5701C23.043 7.29946 37.7774 5.65792 44.1329 10.1725C46.7326 12.0299 51.932 18.3651 51.932 28.8469C55.6755 22.7637 60.8229 26.5072 59.887 31.6545C55.0205 60.1051 27.5155 65.6958 14.3713 64.9348C38.7998 63.2687 41.8493 39.8408 32.4462 23.5701ZM11.8414 28.381C7.18979 29.5268 3.18178 33.872 13.3519 39.3365C25.5486 45.8899 28.7238 56.9083 18.832 61.7043C17.9133 62.0971 16.9326 62.4719 15.8865 62.8268C16.9731 62.5066 17.954 62.13 18.832 61.7043C37.9145 53.5461 30.1815 37.666 23.6412 32.3309C18.7798 28.0566 13.7491 27.9166 11.8414 28.381Z" fill="url(#paint1_radial_594_1577)"/>
<path d="M94.2849 21.2273H101.828V41.3988C101.828 43.73 101.273 45.7609 100.164 47.4915C99.0542 49.2119 97.5068 50.5455 95.5218 51.4922C93.5367 52.4287 91.2309 52.897 88.6045 52.897C85.9475 52.897 83.6265 52.4287 81.6414 51.4922C79.6563 50.5455 78.1141 49.2119 77.0147 47.4915C75.9152 45.7609 75.3655 43.73 75.3655 41.3988V21.2273H82.9241V40.7422C82.9241 41.8213 83.1582 42.7833 83.6265 43.6282C84.105 44.4731 84.7718 45.1348 85.6269 45.6133C86.482 46.0917 87.4745 46.331 88.6045 46.331C89.7345 46.331 90.7219 46.0917 91.5669 45.6133C92.422 45.1348 93.0888 44.4731 93.5672 43.6282C94.0457 42.7833 94.2849 41.8213 94.2849 40.7422V21.2273ZM114.033 39.1236V52.5H106.566V29.0455H113.666V33.3516H113.926C114.445 31.9162 115.331 30.7913 116.583 29.9769C117.835 29.1523 119.326 28.7401 121.057 28.7401C122.706 28.7401 124.136 29.1116 125.348 29.8548C126.569 30.5877 127.516 31.6159 128.188 32.9393C128.87 34.2525 129.206 35.7897 129.196 37.5508V52.5H121.729V39.0167C121.739 37.7137 121.408 36.6957 120.736 35.9627C120.074 35.2298 119.153 34.8633 117.972 34.8633C117.188 34.8633 116.496 35.0363 115.896 35.3825C115.305 35.7184 114.847 36.2019 114.521 36.8331C114.206 37.4643 114.043 38.2277 114.033 39.1236ZM138.201 52.5L132.093 29.0455H139.591L142.752 44.071H142.95L146.34 29.0455H153.654L157.136 43.9641H157.334L160.404 29.0455H167.901L161.778 52.5H153.792L150.127 38.8335H149.867L146.203 52.5H138.201ZM170.898 52.5V29.0455H178.365V52.5H170.898ZM174.639 26.3121C173.59 26.3121 172.689 25.966 171.936 25.2738C171.183 24.5714 170.806 23.7264 170.806 22.739C170.806 21.7617 171.183 20.927 171.936 20.2347C172.689 19.5323 173.59 19.1811 174.639 19.1811C175.698 19.1811 176.598 19.5323 177.342 20.2347C178.095 20.927 178.472 21.7617 178.472 22.739C178.472 23.7264 178.095 24.5714 177.342 25.2738C176.598 25.966 175.698 26.3121 174.639 26.3121ZM190.584 39.1236V52.5H183.117V29.0455H190.218V33.3516H190.478C190.997 31.9162 191.882 30.7913 193.135 29.9769C194.387 29.1523 195.878 28.7401 197.609 28.7401C199.258 28.7401 200.688 29.1116 201.899 29.8548C203.121 30.5877 204.068 31.6159 204.74 32.9393C205.422 34.2525 205.758 35.7897 205.747 37.5508V52.5H198.28V39.0167C198.291 37.7137 197.96 36.6957 197.288 35.9627C196.626 35.2298 195.705 34.8633 194.524 34.8633C193.74 34.8633 193.048 35.0363 192.447 35.3825C191.857 35.7184 191.399 36.2019 191.073 36.8331C190.757 37.4643 190.595 38.2277 190.584 39.1236ZM218.937 52.8359C217.206 52.8359 215.633 52.388 214.218 51.4922C212.803 50.5964 211.673 49.2526 210.828 47.4609C209.984 45.6693 209.561 43.445 209.561 40.788C209.561 38.0292 209.999 35.7591 210.874 33.9776C211.75 32.1961 212.895 30.8778 214.31 30.0227C215.735 29.1676 217.267 28.7401 218.906 28.7401C220.138 28.7401 221.192 28.9538 222.067 29.3814C222.943 29.7988 223.665 30.3383 224.235 31C224.806 31.6617 225.238 32.3488 225.533 33.0614H225.686V21.2273H233.153V52.5H225.762V48.6978H225.533C225.218 49.4206 224.77 50.0975 224.19 50.7287C223.609 51.3598 222.882 51.8688 222.006 52.2557C221.141 52.6425 220.118 52.8359 218.937 52.8359ZM221.533 47.0181C222.439 47.0181 223.212 46.7636 223.854 46.2546C224.495 45.7354 224.989 45.0076 225.335 44.071C225.681 43.1345 225.854 42.035 225.854 40.7727C225.854 39.4901 225.681 38.3855 225.335 37.4592C224.999 36.5328 224.505 35.8202 223.854 35.3214C223.212 34.8226 222.439 34.5732 221.533 34.5732C220.606 34.5732 219.822 34.8277 219.181 35.3366C218.54 35.8456 218.051 36.5633 217.715 37.4897C217.389 38.4161 217.227 39.5104 217.227 40.7727C217.227 42.035 217.395 43.1345 217.73 44.071C218.066 45.0076 218.55 45.7354 219.181 46.2546C219.822 46.7636 220.606 47.0181 221.533 47.0181Z" fill="white"/>
<defs>
<radialGradient id="paint0_radial_594_1577" cx="0" cy="0" r="1" gradientUnits="userSpaceOnUse" gradientTransform="translate(36.9581 18.4195) rotate(108.587) scale(55.7867 51.8706)">
<stop stop-color="#F2AD72"/>
<stop offset="1" stop-color="#B28BEB"/>
</radialGradient>
<radialGradient id="paint1_radial_594_1577" cx="0" cy="0" r="1" gradientUnits="userSpaceOnUse" gradientTransform="translate(36.9581 18.4195) rotate(108.587) scale(55.7867 51.8706)">
<stop stop-color="#F2AD72"/>
<stop offset="1" stop-color="#B28BEB"/>
</radialGradient>
</defs>
</svg>
